<?xml version="1.0" encoding="UTF-8" standalone="no"?>
<!-- Created with Inkscape (http://www.inkscape.org/) -->

<svg
   width="480"
   height="480"
   viewBox="0 0 126.99999 126.99996"
   version="1.1"
   id="svg5"
   inkscape:version="1.2 (dc2aedaf03, 2022-05-15)"
   sodipodi:docname="WAG_single.svg"
   inkscape:export-filename="3wugs.png"
   inkscape:export-xdpi="300"
   inkscape:export-ydpi="300"
   xmlns:inkscape="http://www.inkscape.org/namespaces/inkscape"
   xmlns:sodipodi="http://sodipodi.sourceforge.net/DTD/sodipodi-0.dtd"
   xmlns:xlink="http://www.w3.org/1999/xlink"
   xmlns="http://www.w3.org/2000/svg"
   xmlns:svg="http://www.w3.org/2000/svg">
  <sodipodi:namedview
     id="namedview7"
     pagecolor="#a2a2a2"
     bordercolor="#000000"
     borderopacity="0.25"
     inkscape:showpageshadow="false"
     inkscape:pageopacity="0"
     inkscape:pagecheckerboard="true"
     inkscape:deskcolor="#d1d1d1"
     inkscape:document-units="mm"
     showgrid="false"
     inkscape:zoom="0.89486793"
     inkscape:cx="276.57713"
     inkscape:cy="339.15619"
     inkscape:window-width="1920"
     inkscape:window-height="1001"
     inkscape:window-x="-9"
     inkscape:window-y="-9"
     inkscape:window-maximized="1"
     inkscape:current-layer="layer2"
     showborder="false"
     borderlayer="false"
     shape-rendering="auto"
     inkscape:lockguides="true" />
  <defs
     id="defs2">
    <linearGradient
       id="linearGradient7750"
       inkscape:swatch="solid">
      <stop
         style="stop-color:#005daa;stop-opacity:1;"
         offset="0"
         id="stop7748" />
    </linearGradient>
    <linearGradient
       id="linearGradient7675"
       inkscape:swatch="solid">
      <stop
         style="stop-color:#005daa;stop-opacity:1;"
         offset="0"
         id="stop7673" />
    </linearGradient>
    <linearGradient
       id="linearGradient7582"
       inkscape:swatch="solid">
      <stop
         style="stop-color:#000000;stop-opacity:1;"
         offset="0"
         id="stop7580" />
    </linearGradient>
    <linearGradient
       id="linearGradient7558"
       inkscape:swatch="solid">
      <stop
         style="stop-color:#000000;stop-opacity:1;"
         offset="0"
         id="stop7556" />
    </linearGradient>
    <linearGradient
       id="linearGradient5964"
       inkscape:swatch="solid">
      <stop
         style="stop-color:#000000;stop-opacity:1;"
         offset="0"
         id="stop5962" />
    </linearGradient>
    <linearGradient
       id="linearGradient5940"
       inkscape:swatch="solid">
      <stop
         style="stop-color:#51a3e6;stop-opacity:1;"
         offset="0"
         id="stop5938" />
    </linearGradient>
    <linearGradient
       inkscape:collect="always"
       xlink:href="#linearGradient5940"
       id="linearGradient7586"
       x1="329.22998"
       y1="255.18587"
       x2="440.04556"
       y2="255.18587"
       gradientUnits="userSpaceOnUse"
       gradientTransform="matrix(0.26731155,0,0,0.26700944,-18.676236,-0.25620318)" />
    <linearGradient
       inkscape:collect="always"
       xlink:href="#linearGradient5940"
       id="linearGradient7588"
       x1="270.11026"
       y1="277.06812"
       x2="352.64597"
       y2="277.06812"
       gradientUnits="userSpaceOnUse" />
    <linearGradient
       inkscape:collect="always"
       xlink:href="#linearGradient5940"
       id="linearGradient7590"
       x1="265.02753"
       y1="378.81168"
       x2="360.53812"
       y2="378.81168"
       gradientUnits="userSpaceOnUse"
       gradientTransform="matrix(0.26613784,0,0,0.2713462,-17.886454,-2.1234073)" />
    <linearGradient
       inkscape:collect="always"
       xlink:href="#linearGradient5940"
       id="linearGradient7596"
       x1="228.07166"
       y1="268.25082"
       x2="299.50278"
       y2="268.25082"
       gradientUnits="userSpaceOnUse" />
    <linearGradient
       inkscape:collect="always"
       xlink:href="#linearGradient5940"
       id="linearGradient7598"
       x1="182.99225"
       y1="160.86047"
       x2="287.20346"
       y2="160.86047"
       gradientUnits="userSpaceOnUse"
       gradientTransform="matrix(0.27109586,0,0,0.27350017,-19.044627,-0.92037553)" />
    <linearGradient
       inkscape:collect="always"
       xlink:href="#linearGradient5940"
       id="linearGradient7602"
       x1="336.97812"
       y1="159.67484"
       x2="418.71146"
       y2="159.67484"
       gradientUnits="userSpaceOnUse"
       gradientTransform="matrix(0.27664119,0,0,0.27035787,-22.069459,-0.33251434)" />
  </defs>
  <g
     inkscape:label="Layer 1"
     inkscape:groupmode="layer"
     id="layer1"
     style="display:none"
     transform="translate(-29.334197,-12.929344)"
     sodipodi:insensitive="true"
     inkscape:export-filename="WAG2.png"
     inkscape:export-xdpi="300"
     inkscape:export-ydpi="300">
    <path
       d="m -29.672314,109.68366 c 2.335162,6.0852 3.41632,12.79166 1.672263,19.18623 -0.282189,0.88984 -0.428939,2.42593 -1.144881,3.13364 -0.38671,0.37989 -3.333662,2.01806 -3.182111,1.95563 5.61246,-2.55981 8.176411,-2.84176 13.141096,-0.66328"
       fill="none"
       stroke="#c5e5ff"
       stroke-width="2.57"
       stroke-opacity="1"
       stroke-linejoin="miter"
       id="path72-6-9-0"
       style="display:inline;stroke:#005daa;stroke-width:10.284;stroke-linecap:round;stroke-dasharray:none;stroke-opacity:0.988235"
       sodipodi:nodetypes="ccccc" />
    <path
       d="m -3.7373153,109.0012 c 2.05306,2.19558 4.64298024,7.51505 5.5788702,11.50917 0.21344,0.95495 0.89049,2.42632 0.61458,3.44163 -0.15028,0.54622 -1.95827996,3.56759 -1.85377996,3.43201 3.73870996,-5.24554 5.91472996,-6.83593 11.56500006,-7.44132"
       fill="none"
       stroke="#c5e5ff"
       stroke-width="2.57"
       stroke-opacity="1"
       stroke-linejoin="miter"
       id="path72-0-3-5-9"
       style="display:inline;stroke:#005daa;stroke-width:10.284;stroke-linecap:round;stroke-dasharray:none;stroke-opacity:0.988235"
       sodipodi:nodetypes="ccccc" />
    <path
       style="display:inline;fill:#91c5f1;fill-opacity:0.988235;stroke:#91c5f2;stroke-width:0.7;stroke-linecap:round;stroke-dasharray:none;stroke-opacity:0.988235;paint-order:fill markers stroke"
       d="m -51.281996,115.58317 c -2.923958,-0.0685 -10.949836,-0.25441 -17.835284,-0.41308 -6.885448,-0.15868 -13.011791,-0.34081 -13.614096,-0.40473 l -1.095099,-0.11623 14.342775,-9.56074 c 7.888527,-5.258413 14.386585,-9.560743 14.440131,-9.560743 0.05354,0 0.347263,0.190613 0.652709,0.423587 0.862779,0.658074 2.079249,1.131043 3.239785,1.259641 l 1.059905,0.117449 3.126177,9.089136 c 1.719394,4.99903 3.129946,9.14702 3.134561,9.21776 0.0046,0.0707 -0.473938,0.116 -1.063445,0.10057 -0.589508,-0.0154 -3.464163,-0.0841 -6.388119,-0.15262 z"
       id="path1669" />
    <path
       style="display:inline;fill:#51a3e6;fill-opacity:1;stroke:#51a3e6;stroke-width:0.344218;stroke-linecap:round;stroke-dasharray:none;stroke-opacity:1;paint-order:fill markers stroke"
       d="m -35.161762,50.561101 -6.842786,-3.98521 0.122052,-0.524224 c 0.102772,-0.441407 0.07889,-1.493848 -0.06611,-2.913975 -0.02861,-0.280223 1.565399,-1.231196 17.636392,-10.521699 9.717317,-5.617498 17.6851278,-10.191944 17.7062468,-10.165435 0.021114,0.02651 -3.4987278,6.69572 -7.8218818,14.820471 l -7.860279,14.772273 -0.442817,-0.0517 c -0.708364,-0.0827 -2.137384,0.222303 -3.02523,0.645681 -0.485346,0.231445 -1.141386,0.705528 -1.607632,1.161751 -0.433226,0.423911 -0.825368,0.765466 -0.871427,0.759011 -0.04606,-0.0065 -3.162995,-1.805083 -6.926527,-3.996947 z"
       id="path2162" />
    <path
       style="display:inline;fill:#51a3e6;fill-opacity:1;stroke:#51a3e6;stroke-width:0.344218;stroke-linecap:round;stroke-dasharray:none;stroke-opacity:1;paint-order:fill markers stroke"
       d="m -48.311138,85.499258 c -0.324088,-0.127809 -0.342482,-0.178855 -0.28775,-0.798547 0.03216,-0.364103 0.497441,-8.184549 1.033963,-17.378764 0.536524,-9.194215 1.017296,-16.751615 1.068384,-16.794215 0.05109,-0.0426 0.356352,-0.1524 0.678363,-0.243994 0.783418,-0.222837 1.461148,-0.578011 1.991508,-1.043675 l 0.437478,-0.384109 7.114614,4.125444 7.114611,4.125447 0.04975,1.170951 c 0.05159,1.214405 0.245073,1.921406 0.795184,2.905662 l 0.322424,0.576876 -0.704363,0.860843 c -3.210258,3.923448 -19.101988,22.982706 -19.174796,22.996707 -0.05123,0.0098 -0.248949,-0.04353 -0.439367,-0.118626 z"
       id="path2164" />
    <path
       style="display:inline;fill:#005daa;fill-opacity:0.988235;stroke:#005daa;stroke-width:0.344218;stroke-linecap:round;stroke-dasharray:none;stroke-opacity:0.988235;paint-order:fill markers stroke"
       d="m -15.090319,96.975103 c -2.656589,-0.522796 -4.518922,-3.163835 -4.050917,-5.744742 0.306139,-1.688251 1.408261,-3.123967 2.954264,-3.848479 0.6565,-0.307657 0.908293,-0.350747 2.049507,-0.350723 1.175673,2.4e-5 1.376286,0.03687 2.081689,0.382325 0.996241,0.487884 1.992087,1.483733 2.4799738,2.479972 0.3454558,0.705405 0.3822991,0.906015 0.3823229,2.081688 2.38e-5,1.139341 -0.043315,1.393529 -0.3486626,2.04501 -0.4069874,0.868328 -1.3643191,1.940658 -2.1365901,2.393238 -0.521697,0.305737 -2.048322,0.70933 -2.588839,0.684411 -0.143116,-0.0066 -0.513353,-0.06182 -0.822748,-0.1227 z"
       id="path2599" />
    <path
       style="display:inline;fill:#51a3e6;fill-opacity:1;stroke:#51a3e6;stroke-width:0.344218;stroke-linecap:round;stroke-dasharray:none;stroke-opacity:1;paint-order:fill markers stroke"
       d="m -45.04297,88.644352 c -0.09191,-0.221879 -0.298286,-0.596728 -0.458626,-0.832998 l -0.291523,-0.429585 9.818862,-11.819768 c 5.400373,-6.500874 9.865886,-11.867658 9.923364,-11.926189 0.09023,-0.09188 1.521698,0.292851 2.088677,0.561371 0.127402,0.06034 1.13453,3.482965 2.95186,10.031606 1.517166,5.467011 2.79113,10.066332 2.831031,10.220714 0.05855,0.226539 -0.03454,0.34345 -0.482504,0.605978 -1.095791,0.642175 -2.574176,2.364356 -3.081912,3.590136 l -0.166576,0.402151 H -33.393093 -44.87587 Z"
       id="path2166" />
    <path
       style="display:inline;fill:#51a3e6;fill-opacity:1;stroke:#51a3e6;stroke-width:0.344218;stroke-linecap:round;stroke-dasharray:none;stroke-opacity:1;paint-order:fill markers stroke"
       d="m -2.3489626,97.046027 c -2.0317354,-1.31386 -3.738708,-2.436096 -3.793273,-2.493857 -0.054565,-0.05776 -0.01815,-0.485576 0.080923,-0.950706 1.0982775,-5.156245 -3.2112214,-10.160701 -8.4828984,-9.850863 l -1.057275,0.06214 -2.758345,-9.949328 c -1.517092,-5.472131 -2.739197,-9.958724 -2.715789,-9.970204 1.719307,-0.843291 2.351865,-1.32421 3.010418,-2.288746 l 0.414886,-0.607653 8.0665474,1.398336 c 4.436602,0.769086 8.2457659,1.401442 8.4648091,1.405237 l 0.39826144,0.0069 1.654722,6.798016 C 3.9380029,82.946403 3.9288349,82.893253 3.9354629,88.006924 c 0.0042,3.238415 -0.0056,3.364328 -0.40871,5.269277 -0.227158,1.073373 -0.564457,2.478511 -0.749554,3.122533 -0.355274,1.236134 -1.152408,3.064853 -1.328105,3.046813 -0.0572,-0.006 -1.76632086,-1.08566 -3.7980565,-2.39952 z"
       id="path2168" />
    <path
       style="display:inline;fill:#51a3e6;fill-opacity:1;stroke:#51a3e6;stroke-width:0.344218;stroke-linecap:round;stroke-dasharray:none;stroke-opacity:1;paint-order:fill markers stroke"
       d="m -41.016993,115.49173 c -0.311545,-0.8173 -6.492486,-18.901109 -6.491669,-18.992925 5.29e-4,-0.05504 0.209606,-0.242226 0.464706,-0.415975 1.108152,-0.754764 2.103631,-2.305535 2.401724,-3.741439 l 0.143558,-0.69151 h 11.049751 11.049754 l 0.0019,0.748107 c 0.006,2.318502 1.284451,4.718643 3.328598,6.24885 l 0.917514,0.686834 -1.703149,7.379718 -1.703149,7.37971 -1.679583,0.28058 c -0.923769,0.15433 -1.979107,0.31801 -2.34519,0.36375 l -0.66561,0.0832 -0.166364,-0.80546 c -0.213665,-1.03447 -1.402218,-4.71426 -1.732831,-5.3649 -0.457163,-0.89968 -1.672251,-1.21017 -2.552602,-0.65225 -0.427802,0.27111 -0.805897,0.95057 -0.806463,1.44925 -2.59e-4,0.23554 0.208145,1.02593 0.463137,1.75643 0.464489,1.33065 1.255774,4.01972 1.195031,4.06114 -0.05669,0.0387 -3.477414,0.32546 -5.431716,0.45542 -1.037593,0.069 -2.722282,0.12632 -3.743757,0.12738 l -1.857226,0.002 z"
       id="path2170" />
    <path
       style="display:inline;fill:#51a3e6;fill-opacity:1;stroke:#51a3e6;stroke-width:0.344218;stroke-linecap:round;stroke-dasharray:none;stroke-opacity:1;paint-order:fill markers stroke"
       d="m -75.310845,105.53866 c 2.12327,-4.99407 2.97655,-7.637005 4.105986,-12.717828 1.330514,-5.985378 1.970226,-9.309698 2.941815,-15.287408 2.075242,-12.76795 2.451116,-14.994802 3.00862,-17.824468 1.204145,-6.111756 3.149637,-13.577845 3.688929,-14.156751 0.05398,-0.05794 1.61395,-0.01402 3.46661,0.0976 4.975014,0.299744 5.124897,0.316969 5.124897,0.588944 0,0.126238 0.204539,0.638374 0.454531,1.138079 0.540758,1.08091 1.537885,2.080366 2.590633,2.596682 l 0.729406,0.357732 -0.07525,0.980848 c -0.04139,0.539464 -0.5042,8.309951 -1.028467,17.267745 -0.524267,8.957797 -0.987097,16.341733 -1.028512,16.408744 -0.04142,0.06701 -0.322395,0.161351 -0.624396,0.209645 -1.32244,0.211466 -2.990199,1.368414 -3.776784,2.620005 -0.663466,1.055687 -0.920943,1.982025 -0.920358,3.311228 2.59e-4,0.679802 0.06876,1.405128 0.152141,1.611837 0.08338,0.206711 0.135321,0.389159 0.115429,0.405442 -0.247475,0.202586 -18.856977,12.554554 -18.91472,12.554554 -0.04381,0 -0.04854,-0.0732 -0.01051,-0.16263 z"
       id="path2172" />
    <path
       style="display:inline;fill:#005daa;fill-opacity:0.988235;stroke:#005daa;stroke-width:0.344218;stroke-linecap:round;stroke-dasharray:none;stroke-opacity:0.988235;paint-order:fill markers stroke"
       d="m -5.8757605,60.353264 c -2.1825214,-0.382453 -5.5564505,-0.970735 -7.4976225,-1.30729 l -3.529404,-0.611918 -0.08661,-0.845376 c -0.17176,-1.676463 -0.986914,-3.252581 -2.163016,-4.182237 l -0.596009,-0.471117 6.16149,-11.57533 c 3.388818,-6.36643 6.2394621,-11.718049 6.3347597,-11.892487 0.1498918,-0.274362 0.164346,-0.114872 0.1071166,1.181964 -0.2032476,4.605704 1.0447258,11.577258 4.7310807,26.429236 0.5289947,2.131269 0.961808,3.902332 0.961808,3.935696 0,0.10482 -0.3571319,0.05144 -4.4235925,-0.661141 z"
       id="path2596" />
    <path
       style="display:inline;fill:#91c5f1;fill-opacity:0.988235;stroke:#91c5f2;stroke-width:0.344218;stroke-linecap:round;stroke-dasharray:none;stroke-opacity:0.988235;paint-order:fill markers stroke"
       d="m -18.626108,113.34049 c 0,-0.0919 0.673296,-3.08159 1.496214,-6.64368 0.822917,-3.5621 1.496443,-6.48745 1.496721,-6.50078 2.65e-4,-0.0133 0.74676,-0.0283 1.658848,-0.0332 1.449212,-0.008 1.768948,-0.0509 2.535451,-0.341253 1.270487,-0.481254 2.2361978,-1.098839 3.1737964,-2.029688 0.6876044,-0.682654 0.8648012,-0.797145 1.0665883,-0.689153 0.4792901,0.256509 6.98643924,4.464034 7.15911924,4.629084 0.276858,0.26464 -0.6810742,1.57766 -2.37416414,3.25424 -2.6084953,2.58305 -3.9734674,3.52603 -7.5689352,5.22891 -2.1772246,1.03117 -4.5770856,1.99383 -6.7903696,2.72384 -0.94855,0.31286 -1.753579,0.56883 -1.788954,0.56883 -0.03537,0 -0.06431,-0.0752 -0.06431,-0.16713 z"
       id="path1950" />
    <g
       stroke-linecap="round"
       transform="matrix(0.52347373,0,0,0.52431376,-123.73389,-308.74732)"
       id="Layer_10_Copy_2"
       style="display:inline">
      <path
         d="M 210.43,761.55"
         fill="none"
         stroke="#c5e5ff"
         stroke-width="25.69"
         stroke-opacity="1"
         stroke-linejoin="round"
         id="path76"
         style="display:inline" />
      <path
         d="M 146.21,674.85"
         fill="none"
         stroke="#c5e5ff"
         stroke-width="17.66"
         stroke-opacity="1"
         stroke-linejoin="round"
         id="path78" />
      <path
         d="M 191.17,702.15"
         fill="none"
         stroke="#c5e5ff"
         stroke-width="14.45"
         stroke-opacity="1"
         stroke-linejoin="round"
         id="path80" />
      <path
         d="m 141.59919,761.1 h 55.50675"
         fill="none"
         stroke="#c5e5ff"
         stroke-width="4.82"
         stroke-opacity="1"
         stroke-linejoin="round"
         id="path84"
         sodipodi:nodetypes="cc"
         style="stroke:#cfe5ff;stroke-opacity:0.988235" />
      <path
         d="M 204.62754,751.21442 191.1,702.49"
         fill="none"
         stroke="#c5e5ff"
         stroke-width="4.82"
         stroke-opacity="1"
         stroke-linejoin="round"
         id="path86"
         style="stroke:#cfe5ff;stroke-width:4.81968;stroke-dasharray:none;stroke-opacity:0.988235"
         sodipodi:nodetypes="cc" />
      <path
         d="m 191.1,700.89 -45.76,-26.5"
         fill="none"
         stroke="#c5e5ff"
         stroke-width="4.82"
         stroke-opacity="1"
         stroke-linejoin="round"
         id="path88"
         style="stroke:#cfe5ff;stroke-width:4.81968;stroke-dasharray:none;stroke-opacity:0.988235" />
      <path
         d="M 144.40041,674.39 232.04,623.82"
         fill="none"
         stroke="#c5e5ff"
         stroke-width="4.82"
         stroke-opacity="1"
         stroke-linejoin="round"
         id="path90"
         sodipodi:nodetypes="cc"
         style="stroke:#cfe5ff;stroke-width:4.81968;stroke-dasharray:none;stroke-opacity:0.988235" />
      <path
         d="m 140.92878,761.1 48.77884,-58.61"
         fill="none"
         stroke="#c5e5ff"
         stroke-width="4.82"
         stroke-opacity="1"
         stroke-linejoin="round"
         id="path92"
         sodipodi:nodetypes="cc"
         style="stroke:#cfe5ff;stroke-width:4.81968;stroke-dasharray:none;stroke-opacity:0.988235" />
      <path
         d="M 221.89946,770.5396 238.46,781.17"
         fill="none"
         stroke="#c5e5ff"
         stroke-width="4.82"
         stroke-opacity="1"
         stroke-linejoin="round"
         id="path94"
         sodipodi:nodetypes="cc"
         style="stroke:#cfe5ff;stroke-width:4.81968;stroke-dasharray:none;stroke-opacity:0.988235" />
      <path
         d="m 117.24,671.99 26.49,1.6"
         fill="none"
         stroke="#c5e5ff"
         stroke-width="4.82"
         stroke-opacity="1"
         stroke-linejoin="round"
         id="path96"
         style="stroke:#cfe5ff;stroke-width:6.68075;stroke-dasharray:none;stroke-opacity:0.988235" />
      <path
         d="m 190.3,700.08 39.33,-73.85"
         fill="none"
         stroke="#c5e5ff"
         stroke-width="4.82"
         stroke-opacity="1"
         stroke-linejoin="round"
         id="path98"
         style="stroke:#cfe5ff;stroke-width:4.81968;stroke-dasharray:none;stroke-opacity:0.988235" />
      <path
         d="m 145.34,676.8 -4.82,81.89"
         fill="none"
         stroke="#c5e5ff"
         stroke-width="4.82"
         stroke-opacity="1"
         stroke-linejoin="round"
         id="path100"
         style="stroke:#cfe5ff;stroke-width:4.81968;stroke-dasharray:none;stroke-opacity:0.988235" />
      <path
         d="m 139.72,763.77617 16.05,46.69809"
         fill="none"
         stroke="#c5e5ff"
         stroke-width="4.82"
         stroke-opacity="1"
         stroke-linejoin="round"
         id="path102"
         sodipodi:nodetypes="cc"
         style="stroke:#cfe5ff;stroke-width:4.81968;stroke-dasharray:none;stroke-opacity:0.988235" />
      <path
         d="M 204.63746,776.79192 197.52,807.66"
         fill="none"
         stroke="#c5e5ff"
         stroke-width="4.82"
         stroke-opacity="1"
         stroke-linejoin="round"
         id="path104"
         sodipodi:nodetypes="cc"
         style="stroke:#cfe5ff;stroke-width:4.81968;stroke-dasharray:none;stroke-opacity:0.988235" />
      <path
         d="M 192.7,700.92652 234.45,708.11"
         fill="none"
         stroke="#c5e5ff"
         stroke-width="4.82"
         stroke-opacity="1"
         stroke-linejoin="round"
         id="path106"
         sodipodi:nodetypes="cc"
         style="stroke:#cfe5ff;stroke-width:4.81968;stroke-dasharray:none;stroke-opacity:0.988235" />
      <path
         d="M 210.43,761.55"
         fill="none"
         stroke="#005daa"
         stroke-width="14.45"
         stroke-opacity="1"
         stroke-linejoin="round"
         id="path108" />
    </g>
    <circle
       style="display:inline;fill:none;stroke:#cfe5ff;stroke-width:3.09857;stroke-dasharray:none;stroke-opacity:0.988235"
       id="path2669-0-5"
       cx="-14.16325"
       cy="92.004562"
       r="6.6767607" />
    <circle
       style="display:inline;fill:#cfe5ff;fill-opacity:0.988235;stroke:#cfe5ff;stroke-width:3.49999;stroke-dasharray:none;stroke-opacity:0.988235"
       id="path3980-1-3"
       cx="-23.057011"
       cy="58.096619"
       r="4.2894335" />
    <circle
       style="display:inline;fill:#cfe5ff;fill-opacity:0.988235;stroke:#cfe5ff;stroke-width:3.26246;stroke-dasharray:none;stroke-opacity:0.988235"
       id="path3980-8-3-8"
       cx="-47.4464"
       cy="44.86731"
       r="3.9983234" />
    <circle
       style="display:inline;fill:#cfe5ff;fill-opacity:0.988235;stroke:#cfe5ff;stroke-width:3.49999;stroke-dasharray:none;stroke-opacity:0.988235"
       id="path3980-7-1-0"
       cx="-50.608574"
       cy="91.129761"
       r="4.2894335" />
    <path
       d="m -0.22158526,17.593852 c -6.00947004,0.51907 -29.36628674,2.808932 -31.83184774,3.233626 -9.145195,1.577888 -17.896483,6.291997 -23.529639,12.287062 -2.439387,2.700215 -6.130532,9.113499 -7.680014,12.998664 -3.7293,11.817689 -4.974724,24.043173 -7.15274,36.350673 -0.70669,3.953325 -2.38704,11.728898 -3.041383,14.182687 -0.622933,2.30698 -2.538847,7.597316 -3.905114,9.982946 -1.355796,2.29125 -3.690489,4.5458 -5.904783,6.01912 -2.28758,1.531 -4.957296,3.31366 -5.334197,3.56533 l 35.051467,-23.369905"
       fill="none"
       stroke="#c5e5ff"
       stroke-width="6.43"
       stroke-opacity="1"
       stroke-linejoin="miter"
       id="path82-5-4"
       sodipodi:nodetypes="cccccccccc"
       style="display:inline;stroke:#cfe5ff;stroke-width:2.525;stroke-dasharray:none;stroke-opacity:0.988235" />
    <path
       d="m -3.1674953,111.06488 c -7.6249997,4.52295 -13.4487427,7.10583 -22.3597497,8.04941"
       fill="none"
       stroke="#005daa"
       stroke-width="12"
       stroke-opacity="1"
       stroke-linejoin="round"
       id="path65-6-0"
       style="display:inline;stroke:#005daa;stroke-width:4;stroke-dasharray:none;stroke-opacity:0.988235"
       sodipodi:nodetypes="cc" />
    <path
       d="m -0.94329526,16.964468 c -0.40831004,0.828415 -2.42609004,4.340095 -2.98098004,5.504071 -3.67481,7.736675 -1.23885,16.098651 0.43972,24.532641 1.70129,7.58682 8.0300902,31.836332 8.5064502,35.506528 0.28791,2.286008 0.38737,6.559165 0.20416,8.551558 -0.19369,1.981906 -1.04695,5.657345 -1.70653,7.34563 -0.67528,1.677804 -2.4865,4.745064 -3.62767016,6.134494 -1.10977004,1.33176 -3.63814004,3.60203 -5.00441004,4.56153 -2.64878,1.84034 -9.2602507,4.68737 -13.2229437,5.69405 -3.9784,1.00144 -13.24912,2.16542 -18.541439,2.33844 -4.015044,0.12059 -44.471196,-0.93852 -50.569665,-1.09582"
       fill="none"
       stroke="#c5e5ff"
       stroke-width="6.43"
       stroke-opacity="1"
       stroke-linejoin="miter"
       id="path68-5-7"
       sodipodi:nodetypes="ccccccccccc"
       style="display:inline;stroke:#cfe5ff;stroke-width:2.525;stroke-dasharray:none;stroke-opacity:0.988235" />
    <path
       d="m -28.847556,119.78493 c -19.729842,1.30061 -39.919478,-0.49858 -59.834675,-1.24192 -2.209716,-0.56587 -2.041281,-2.56552 -0.870141,-4.004 4.883366,-4.18403 8.538226,-6.20804 11.384479,-13.26182 5.119242,-15.907917 6.943387,-33.608483 10.160881,-48.105461 2.629013,-11.122809 5.964587,-18.384393 14.712728,-26.152243 2.732061,-2.309261 9.950227,-6.045296 13.123456,-7.14444 3.943946,-1.342225 11.67238,-2.716156 17.811542,-3.455965 6.702583,-0.644691 21.1601707,-1.479618 21.3196307,-1.495471 1.06306024,-0.07926 2.1367502,0.179668 2.5832302,0.739809 0.37208,0.512582 0.23388,1.590589 -0.19666,2.573478 -0.23387,0.496729 -2.8171102,6.040011 -3.3008002,7.419227 -2.59,7.659368 0.18784,15.046428 2.06765024,22.627582 2.18458996,8.502518 7.47329996,29.386266 8.11644996,32.799955 1.5783,12.06055 -0.52622,20.599959 -9.17333016,28.859089"
       fill="none"
       stroke="#005daa"
       stroke-width="12"
       stroke-opacity="1"
       stroke-linejoin="round"
       id="path63-2-8"
       style="display:inline;stroke:#005daa;stroke-width:4;stroke-dasharray:none;stroke-opacity:0.988235"
       sodipodi:nodetypes="ccccccccccccccc" />
    <path
       d="m -3.7417953,108.82038 c 2.05655,2.2122 4.65088024,7.57192 5.5883602,11.59627 0.21381,0.96219 0.89201,2.44468 0.61564,3.46767 -0.15054,0.55036 -1.96161996,3.59459 -1.85694996,3.45799 3.74507996,-5.28523 5.92478996,-6.88766 11.58470006,-7.49764"
       fill="none"
       stroke="#c5e5ff"
       stroke-width="2.57"
       stroke-opacity="1"
       stroke-linejoin="miter"
       id="path72-0-3-2"
       style="display:inline;stroke:#cfe5ff;stroke-width:3.5;stroke-linecap:round;stroke-dasharray:none;stroke-opacity:0.988235"
       sodipodi:nodetypes="ccccc" />
    <path
       d="m -29.72098,109.50799 c 2.339147,6.13127 3.422146,12.88847 1.675116,19.33145 -0.282676,0.89658 -0.429673,2.4443 -1.146832,3.15737 -0.38737,0.38275 -3.339338,2.03333 -3.187531,1.97042 5.622024,-2.57918 8.190343,-2.86326 13.16348,-0.6683"
       fill="none"
       stroke="#c5e5ff"
       stroke-width="2.57"
       stroke-opacity="1"
       stroke-linejoin="miter"
       id="path72-6-7"
       style="display:inline;stroke:#cfe5ff;stroke-width:3.5;stroke-linecap:round;stroke-dasharray:none;stroke-opacity:0.988235"
       sodipodi:nodetypes="ccccc" />
    <path
       style="fill:#005daa;fill-opacity:0.988235;stroke:#005daa;stroke-width:0.344218;stroke-linecap:round;stroke-dasharray:none;stroke-opacity:0.988235;paint-order:fill markers stroke"
       d="m -56.809475,42.119443 c -1.572831,-0.102481 -2.878328,-0.204962 -2.901101,-0.227738 -0.11027,-0.11027 2.533947,-4.450119 3.722878,-6.110212 2.778861,-3.880103 8.451514,-8.096559 14.332897,-10.653574 4.009996,-1.743402 7.822859,-2.780034 12.034769,-3.271982 4.280376,-0.499946 22.330407,-2.310631 22.394534,-2.246504 0.025771,0.02576 -25.651206,14.901704 -34.267621,19.852942 l -2.124575,1.220843 -0.287084,-0.267845 c -0.393742,-0.367358 -1.460481,-0.886148 -2.208998,-1.074309 -0.352388,-0.08858 -1.088744,-0.131511 -1.702879,-0.09928 -0.902526,0.04737 -1.241986,0.133533 -2.046306,0.519385 -1.023768,0.491133 -2.189023,1.532972 -2.468084,2.206689 -0.183126,0.442105 -0.07557,0.438465 -4.47843,0.151585 z"
       id="path2180" />
  </g>
  <g
     inkscape:groupmode="layer"
     id="layer2"
     inkscape:label="Layer 2"
     transform="translate(5.3431869,-12.851996)"
     style="display:inline"
     sodipodi:insensitive="true">
    <g
       inkscape:label="Layer 1"
       inkscape:groupmode="layer"
       id="layer1-6"
       style="display:inline"
       transform="translate(-17.691732,0.60496993)">
      <g
         inkscape:groupmode="layer"
         id="layer3"
         inkscape:label="Colour"
         style="display:inline"
         transform="translate(17.691732,-0.60496884)">
        <path
           d="m 66.342963,109.87387 c 2.335162,6.0852 3.41632,12.79166 1.672263,19.18623 -0.282189,0.88984 -0.428939,2.42593 -1.144881,3.13364 -0.38671,0.37989 -3.333662,2.01806 -3.182111,1.95563 5.61246,-2.55981 8.176411,-2.84176 13.141096,-0.66328"
           fill="none"
           stroke="#c5e5ff"
           stroke-width="2.57"
           stroke-opacity="1"
           stroke-linejoin="miter"
           id="path72-6-9"
           style="display:inline;stroke:#005daa;stroke-width:10.284;stroke-linecap:round;stroke-dasharray:none;stroke-opacity:0.988235"
           sodipodi:nodetypes="ccccc" />
        <path
           d="m 92.277966,109.19141 c 2.053053,2.19558 4.642972,7.51505 5.578861,11.50917 0.213447,0.95495 0.890492,2.42632 0.614588,3.44163 -0.150279,0.54622 -1.958279,3.56759 -1.853788,3.43201 3.738713,-5.24554 5.914733,-6.83593 11.565003,-7.44132"
           fill="none"
           stroke="#c5e5ff"
           stroke-width="2.57"
           stroke-opacity="1"
           stroke-linejoin="miter"
           id="path72-0-3-5"
           style="display:inline;stroke:#005daa;stroke-width:10.284;stroke-linecap:round;stroke-dasharray:none;stroke-opacity:0.988235"
           sodipodi:nodetypes="ccccc" />
        <path
           style="display:inline;opacity:1;fill:#51a3e6;fill-opacity:1;stroke:url(#linearGradient7602);stroke-width:2.525;stroke-dasharray:none;stroke-opacity:1"
           d="m 82.99825,54.612327 c -5.811639,-3.202316 -10.593167,-5.900226 -10.625614,-5.995356 -0.03245,-0.09513 0.02623,-0.328572 0.13037,-0.51876 0.104145,-0.190187 0.267416,-0.883896 0.362811,-1.541571 0.253208,-1.74565 -0.02112,-3.351154 -0.856189,-5.01087 l -0.68634,-1.364103 8.603044,-7.42817 c 4.731675,-4.085494 11.556605,-12.270033 9.90724,-9.3238 -0.01499,0.02677 -1.350573,2.406803 -1.504795,2.936262 -0.399843,1.372775 -0.394834,5.45108 0.01007,8.228073 1.180227,8.09366 1.953251,12.044321 3.813459,19.489321 0.837794,3.35304 1.49834,6.153794 1.46789,6.2239 -0.03046,0.07009 -4.810347,-2.492613 -10.621987,-5.694926 z"
           id="path2876"
           sodipodi:nodetypes="csssscssscsscc" />
        <path
           style="opacity:1;fill:#51a3e6;fill-opacity:1;stroke:url(#linearGradient7598);stroke-width:2.525;stroke-dasharray:none;stroke-opacity:1"
           d="m 33.005441,59.087214 c -0.48276,-0.03068 -1.213759,-0.100939 -1.624445,-0.156127 -0.703805,-0.09459 -0.740601,-0.1277 -0.640499,-0.576442 1.93647,-8.681025 3.389556,-12.607859 6.729765,-18.186613 2.791547,-4.66239 4.919062,-7.174474 8.701299,-10.274141 1.6046,-1.315022 4.026108,-2.920197 4.405296,-2.920197 0.147369,0 7.028204,11.027948 8.095751,12.975094 0.04071,0.07423 -0.166505,0.559048 -0.460449,1.077366 -0.836442,1.474913 -1.130283,2.909137 -1.021603,4.986347 l 0.09266,1.771053 -6.599028,4.536009 -6.59903,4.53601 -0.448959,-0.437194 c -0.24693,-0.240457 -0.883444,-0.647867 -1.414477,-0.905355 -0.810561,-0.393023 -1.20499,-0.468159 -2.457675,-0.468159 -1.27514,0 -1.636199,0.07136 -2.482519,0.490666 -1.15115,0.570329 -2.3179,1.770201 -2.807789,2.887498 -0.189017,0.431096 -0.399219,0.769444 -0.467114,0.751886 -0.0679,-0.01756 -0.518432,-0.05703 -1.001187,-0.0877 z"
           id="path2884" />
        <path
           style="opacity:1;fill:#51a3e6;fill-opacity:1;stroke:url(#linearGradient7596);stroke-width:9.54331;stroke-dasharray:none;stroke-opacity:1;paint-order:fill markers stroke"
           d="m 242.33243,296.08649 c -7.5756,-27.86565 -13.7678,-50.91948 -13.76045,-51.23073 0.007,-0.31125 1.26164,-1.66468 2.78729,-3.00761 3.89045,-3.42451 6.30806,-8.15545 6.8338,-13.37283 l 0.42932,-4.26059 17.48387,-11.97115 c 9.61612,-6.58413 20.90546,-14.30908 25.08741,-17.16655 l 7.60355,-5.19541 2.91272,2.68485 c 1.602,1.47667 3.95317,3.18101 5.22484,3.78743 1.48973,0.7104 2.21687,1.45632 2.04432,2.09712 -8.42125,31.27547 -41.71941,148.31052 -42.19527,148.3063 -0.37267,-0.003 -6.87579,-22.80519 -14.4514,-50.67083 z"
           id="path3612"
           transform="matrix(0.26458333,0,0,0.26458333,-17.475772,0.5139922)" />
        <path
           style="opacity:1;fill:#51a3e6;fill-opacity:1;stroke:url(#linearGradient7586);stroke-width:2.525;stroke-dasharray:none;stroke-opacity:1;paint-order:fill markers stroke"
           d="m 93.231461,82.992105 c -2.856112,-0.748737 -5.670549,-1.488204 -6.254307,-1.643261 l -1.061374,-0.281922 -0.109015,-0.82087 c -0.360694,-2.715969 -3.009818,-5.036997 -5.812997,-5.093048 l -1.194367,-0.02387 -3.42015,-8.558657 c -1.881082,-4.707259 -3.975158,-9.96272 -4.653503,-11.678803 l -1.233352,-3.120147 0.389409,-0.293398 c 0.381571,-0.287495 0.618666,-0.1642 11.782984,6.12737 6.266467,3.531424 11.708591,6.56184 12.093607,6.734261 l 0.700036,0.313488 1.598077,6.534709 c 2.513787,10.27914 3.092016,13.205243 2.604202,13.178467 -0.129975,-0.0071 -2.573136,-0.625574 -5.42925,-1.374308 z"
           id="path3683" />
        <path
           style="opacity:1;fill:#51a3e6;fill-opacity:1;stroke:url(#linearGradient7588);stroke-width:9.54331;stroke-dasharray:none;stroke-opacity:1;paint-order:fill markers stroke"
           d="m 272.38583,352.68608 -1.71711,-1.79228 21.01559,-74.98908 c 11.55858,-41.24399 21.10352,-75.07296 21.21099,-75.17547 0.10748,-0.10252 1.06208,-0.28758 2.12135,-0.41126 l 1.92595,-0.22486 17.56563,44.03344 17.56564,44.03344 -1.55054,1.94265 c -0.85279,1.06846 -2.33397,3.54534 -3.2915,5.50418 -1.46922,3.00563 -1.74272,4.42064 -1.75227,9.06571 -0.006,3.0273 0.22056,6.40651 0.50397,7.50935 l 0.51528,2.00518 -34.83546,19.44023 c -19.15951,10.69213 -35.44859,19.75767 -36.19795,20.14563 -1.14581,0.59323 -1.63553,0.42039 -3.07957,-1.08686 z"
           id="path3685"
           transform="matrix(0.26458333,0,0,0.26458333,-17.475772,0.5139922)" />
        <path
           style="opacity:1;fill:#51a3e6;fill-opacity:1;stroke:url(#linearGradient7590);stroke-width:2.525;stroke-dasharray:none;stroke-opacity:1;paint-order:fill markers stroke"
           d="m 52.886691,112.15461 c -0.06258,-1.96926 -0.110253,-4.60837 -0.105947,-5.8647 l 0.0078,-2.28424 0.95512,-0.61498 c 1.834888,-1.18146 2.895527,-3.34723 2.788781,-5.694563 l -0.05521,-1.213941 9.714348,-5.536922 c 8.091495,-4.611938 9.761329,-5.502412 9.995586,-5.33036 0.154682,0.11361 0.610838,0.380047 1.013677,0.592085 0.402837,0.212038 0.732435,0.493397 0.732435,0.625245 0,0.772126 -4.198636,27.031856 -4.335923,27.118386 -0.09177,0.0579 -0.840498,0.20357 -1.663819,0.32386 -0.823324,0.12029 -1.661693,0.25695 -1.863045,0.30369 -0.310191,0.072 -0.384768,-0.0177 -0.488374,-0.58742 -0.158413,-0.87116 -1.269479,-4.3966 -1.581545,-5.01828 -0.269268,-0.53644 -1.046103,-1.01365 -1.648447,-1.01266 -0.659399,10e-4 -1.463609,0.62132 -1.682515,1.2976 -0.182316,0.56323 -0.12648,0.85676 0.585413,3.07761 0.432825,1.35025 0.786951,2.52539 0.786951,2.61142 0,0.25762 -4.287388,0.59634 -8.804247,0.69556 l -4.237298,0.0931 z"
           id="path3689" />
        <path
           style="opacity:1;fill:#91c5f0;fill-opacity:0.988235;stroke:#91c5f0;stroke-width:2.525;stroke-dasharray:none;stroke-opacity:1;paint-order:fill markers stroke"
           d="M 60.694773,37.850364 C 59.936049,36.675932 53.27054,25.8855 53.27054,25.831674 c 0,-0.444729 7.240385,-2.637855 10.592722,-3.208556 1.860698,-0.316764 25.370615,-2.807284 25.944851,-2.716435 0.207752,0.03287 -3.333785,3.009924 -10.186901,9.003777 -5.398934,4.722002 -10.022998,8.74919 -10.275692,8.949304 l -0.459446,0.363847 -0.99816,-0.363847 c -0.846762,-0.308659 -1.300174,-0.363536 -2.989274,-0.361811 -1.668757,0.0016 -2.144951,0.05908 -2.941328,0.354445 -0.522617,0.193827 -0.968963,0.352412 -0.991882,0.352412 -0.02293,0 -0.144715,-0.1595 -0.270657,-0.354446 z"
           id="path9831"
           sodipodi:nodetypes="sssssscscsss" />
        <path
           style="opacity:1;fill:#91c5f0;fill-opacity:0.988235;stroke:#91c5f0;stroke-width:2.525;stroke-dasharray:0, 27.775;stroke-dashoffset:0;stroke-opacity:1;paint-order:fill markers stroke"
           d="m 41.691408,115.26449 c -13.235053,-0.32936 -24.654856,-0.643 -24.68866,-0.67804 -0.02034,-0.0211 6.735682,-2.78674 15.013433,-6.14584 14.287019,-5.79765 15.065373,-6.09345 15.344569,-5.83146 0.16176,0.15179 0.708211,0.4503 1.214336,0.66334 l 0.920222,0.38736 0.102197,2.58349 c 0.05622,1.42092 0.136088,4.07311 0.177509,5.89375 l 0.07531,3.31027 -1.438745,-0.0257 c -0.791306,-0.0142 -3.815383,-0.0849 -6.720169,-0.15714 z"
           id="path11024" />
        <path
           style="opacity:1;fill:#005daa;fill-opacity:0.988235;stroke:#005daa;stroke-width:9.54331;stroke-dasharray:0, 104.976;stroke-dashoffset:0;stroke-opacity:0.988235;paint-order:fill markers stroke"
           d="m 137.31282,412.96687 c 0.2782,-0.45143 1.59003,-2.38151 2.91519,-4.28906 2.96643,-4.27014 5.27975,-8.83817 8.67995,-17.14001 6.16932,-15.06284 8.97704,-24.38296 13.46928,-44.7108 6.06266,-27.4342 7.86913,-37.94704 12.46567,-72.54465 3.96897,-29.87403 5.50724,-41.53233 5.50613,-41.73012 -5.5e-4,-0.098 3.70616,0.0537 8.23714,0.33696 l 8.23814,0.5151 1.03066,2.17091 c 2.47706,5.21749 9.2065,10.41115 14.6119,11.27722 l 2.27684,0.3648 14.06693,51.75809 14.06694,51.7581 -2.56228,2.67115 c -5.08874,5.30496 -7.18807,11.14894 -6.58323,18.32595 l 0.34501,4.09388 -47.52863,18.57446 c -26.14075,10.21595 -48.02652,18.75769 -48.63504,18.98163 -0.85937,0.31627 -0.99347,0.22391 -0.6006,-0.41361 z"
           id="path11026"
           transform="matrix(0.26458333,0,0,0.26458333,-17.475772,0.5139922)" />
        <path
           style="opacity:1;fill:#005daa;fill-opacity:0.988235;stroke:#005daa;stroke-width:2.525;stroke-dasharray:0, 27.775;stroke-dashoffset:0;stroke-opacity:0.988235;paint-order:fill markers stroke"
           d="m 77.349587,113.45243 c 0,-0.0844 0.932296,-6.03087 2.071767,-13.21456 1.139471,-7.183679 2.071765,-13.13616 2.071765,-13.227732 0,-0.09157 0.197218,-0.215074 0.43826,-0.27445 0.742624,-0.182927 1.802039,-0.885759 2.6046,-1.727918 l 0.766432,-0.804251 6.342577,1.647216 c 3.488418,0.905968 6.757566,1.752929 7.264779,1.882137 l 0.9222,0.234922 -0.100507,1.613814 c -0.203756,3.271618 -1.235346,7.431224 -2.405156,9.698147 -1.825015,3.536605 -4.032963,6.167005 -7.147704,8.515265 -2.01499,1.51914 -6.611807,3.71228 -10.814805,5.15973 -2.125429,0.73197 -2.014209,0.70449 -2.014208,0.49768 z"
           id="path11097" />
        <path
           style="opacity:1;fill:#005daa;fill-opacity:0.988235;stroke:#005daa;stroke-width:0.0954618;stroke-dasharray:0, 1.05008;stroke-dashoffset:0;stroke-opacity:0.988235;paint-order:fill markers stroke"
           d="m 64.048078,50.583341 c -1.624628,-0.398895 -2.91725,-1.421699 -3.657894,-2.894356 -0.485227,-0.964809 -0.550455,-1.250771 -0.548598,-2.405054 0.0017,-1.099503 0.07688,-1.459587 0.46736,-2.240474 1.669558,-3.338847 6.18615,-4.100611 8.851388,-1.492865 0.353356,0.345734 0.840825,0.996018 1.083261,1.44507 0.381483,0.706609 0.440996,1.014194 0.442327,2.286088 0.0014,1.278288 -0.05886,1.589971 -0.462387,2.393949 -1.078798,2.1494 -3.884095,3.470242 -6.175457,2.907642 z"
           id="path11099" />
        <path
           style="opacity:1;fill:#005daa;fill-opacity:0.988235;stroke:#005daa;stroke-width:5.95305;stroke-linecap:round;stroke-dasharray:none;stroke-dashoffset:0;stroke-opacity:0.988235;paint-order:fill markers stroke"
           d="m 140.17605,409.36406 c 5.20991,-7.63926 12.85029,-25.9698 17.30939,-41.52814 2.53929,-8.8599 8.14799,-33.87 10.8788,-48.5104 1.96686,-10.54464 5.8458,-37.41075 9.83131,-68.09295 l 2.37008,-18.24594 h 3.19199 c 1.7556,0 5.35565,0.18289 8.00012,0.40643 4.75174,0.40167 4.82163,0.43294 5.9611,2.66648 2.36744,4.64057 9.48913,10.02928 14.496,10.96857 2.24777,0.42169 2.25254,0.42957 3.89993,6.44596 0.90718,3.31307 7.21412,26.51395 14.01542,51.55753 l 12.366,45.53377 -2.82279,3.12207 c -1.55254,1.71714 -3.54677,4.66596 -4.43162,6.55293 -1.37565,2.93362 -1.61045,4.29944 -1.62009,9.42382 l -0.0113,5.99296 -47.40825,18.5046 c -26.07453,10.17754 -56.69542,25.96153 -56.92953,25.95399 -0.23412,-0.008 9.67503,-8.95048 10.90343,-10.75168 z"
           id="path11520"
           transform="matrix(0.26458333,0,0,0.26458333,-17.475772,0.5139922)"
           sodipodi:nodetypes="sssscsssssscssscscss" />
        <path
           style="opacity:1;fill:#005daa;fill-opacity:0.988235;stroke:#005daa;stroke-width:5.95305;stroke-linecap:round;stroke-dasharray:none;stroke-dashoffset:0;stroke-opacity:0.988235;paint-order:fill markers stroke"
           d="m 358.95962,425.00865 c 0.18012,-0.79931 3.56105,-22.22561 7.5132,-47.61398 3.95214,-25.38837 7.34009,-46.90172 7.52878,-47.80744 0.26527,-1.27329 1.24878,-2.09265 4.33651,-3.61274 2.67374,-1.31627 5.08453,-3.1725 7.29509,-5.61699 l 3.30164,-3.65103 19.96137,5.19485 c 10.97876,2.85717 22.83862,5.95178 26.35525,6.87691 l 6.39388,1.68205 v 5.45144 c 0,9.99072 -3.87855,27.2153 -8.07148,35.8453 -3.14054,6.46394 -8.58243,15.09236 -12.15905,19.27884 -3.11109,3.64157 -13.3905,12.81982 -17.42359,15.55713 -6.14848,4.17306 -22.5325,11.8124 -34.8173,16.23418 -11.16716,4.0195 -10.60124,3.89864 -10.2143,2.18148 z"
           id="path11522"
           transform="matrix(0.26458333,0,0,0.26458333,-17.475772,0.5139922)" />
        <path
           style="opacity:1;fill:#91c5f1;fill-opacity:0.988235;stroke:#91c5f1;stroke-width:5.95305;stroke-linecap:round;stroke-dasharray:none;stroke-dashoffset:0;stroke-opacity:0.988235;paint-order:fill markers stroke"
           d="m 183.3951,432.49981 c -25.21683,-0.64286 -58.83852,0.0249 -60.17741,-0.22646 -2.81497,-0.5284 3.25769,0.60493 64.54396,-24.30426 50.14096,-20.37929 53.42199,-21.61549 54.36251,-20.48224 0.98313,1.18461 5.1529,3.32193 8.32867,4.26907 l 2.49517,0.74416 0.39185,10.84919 c 0.21552,5.96705 0.42605,15.27031 0.46784,20.67392 l 0.076,9.82474 -12.31991,-0.0896 c -6.77595,-0.0493 -32.95186,-0.61562 -58.16868,-1.25848 z"
           id="path11881"
           transform="matrix(0.26458333,0,0,0.26458333,-17.475772,0.5139922)"
           sodipodi:nodetypes="ssssscsscsss" />
      </g>
      <g
         stroke-linecap="round"
         transform="matrix(0.52347373,0,0,0.52431376,-10.453866,-308.95786)"
         id="Layer_10_Copy_2-7"
         style="display:inline">
        <path
           d="m 232.26,623.38 c -0.78,1.58 -2.61,5.39 -3.67,7.61 -7.02004,14.75581 -2.3666,30.70423 0.84,46.79 3.25,14.47 15.34,60.72 16.25,67.72 0.55,4.36 0.74,12.51 0.39,16.31 -0.37,3.78 -2,10.79 -3.26,14.01 -1.29,3.2 -4.75,9.05 -6.93,11.7 -2.12,2.54 -6.95,6.87 -9.56,8.7 -5.06,3.51 -17.69,8.94 -25.26,10.86 -7.6,1.91 -25.31,4.13 -35.42,4.46 -7.67,0.23 -84.954012,-1.79 -96.604012,-2.09"
           fill="none"
           stroke="#c5e5ff"
           stroke-width="6.43"
           stroke-opacity="1"
           stroke-linejoin="miter"
           id="path68-5"
           sodipodi:nodetypes="ccccccccccc"
           style="display:inline;stroke:#cfe5ff;stroke-width:4.81968;stroke-dasharray:none;stroke-opacity:0.988235" />
        <path
           d="M 140.59,761.55"
           fill="none"
           stroke="#c5e5ff"
           stroke-width="16.71"
           stroke-opacity="1"
           stroke-linejoin="round"
           id="path70-4" />
        <path
           d="M 210.43,761.55"
           fill="none"
           stroke="#c5e5ff"
           stroke-width="25.69"
           stroke-opacity="1"
           stroke-linejoin="round"
           id="path76-9" />
        <path
           d="M 146.21,674.85"
           fill="none"
           stroke="#c5e5ff"
           stroke-width="17.66"
           stroke-opacity="1"
           stroke-linejoin="round"
           id="path78-9" />
        <path
           d="M 191.17,702.15"
           fill="none"
           stroke="#c5e5ff"
           stroke-width="14.45"
           stroke-opacity="1"
           stroke-linejoin="round"
           id="path80-3" />
        <path
           d="m 233.02041,622.4 c -11.48,0.99 -52.73041,4.61 -57.44041,5.42 -4.62,0.82 -13.25,3.18 -17.27,4.73 -4.01,1.58 -11.41,5.46 -14.82,7.77 -3.39,2.33 -9.48,7.65 -12.36,10.81 -4.66,5.15 -12.4,17.88 -15.36,25.29 -2.95,7.43 -7.12,24.52 -8.3,34.03 -1.14,9.34 -3.51,27.25 -4.8,35.3 -1.35,7.54 -4.56,22.37 -5.81,27.05 -1.19,4.4 -4.85,14.49 -7.46,19.04 -2.59,4.37 -7.05,8.67 -11.28,11.48 -4.37,2.92 -9.47,6.32 -10.19,6.8 l 80.84241,-31.57785"
           fill="none"
           stroke="#c5e5ff"
           stroke-width="6.43"
           stroke-opacity="1"
           stroke-linejoin="miter"
           id="path82-5"
           sodipodi:nodetypes="ccccccccccccc"
           style="display:inline;stroke:#cfe5ff;stroke-width:4.81968;stroke-dasharray:none;stroke-opacity:0.988235" />
        <path
           d="M 152.07268,774.82443 205.94294,744.7614"
           fill="none"
           stroke="#c5e5ff"
           stroke-width="4.82"
           stroke-opacity="1"
           stroke-linejoin="round"
           id="path84-3"
           sodipodi:nodetypes="cc"
           style="stroke:#cfe5ff;stroke-width:4.81968;stroke-dasharray:none;stroke-opacity:0.988235" />
        <path
           d="M 205.60943,743.37189 183.57218,688.11203"
           fill="none"
           stroke="#c5e5ff"
           stroke-width="4.82"
           stroke-opacity="1"
           stroke-linejoin="round"
           id="path86-5"
           style="display:inline;stroke:#cfe5ff;stroke-width:4.81968;stroke-dasharray:none;stroke-opacity:0.988235"
           sodipodi:nodetypes="cc" />
        <path
           d="m 165.89817,680.9569 -31.03166,21.20873"
           fill="none"
           stroke="#c5e5ff"
           stroke-width="4.82"
           stroke-opacity="1"
           stroke-linejoin="round"
           id="path88-6"
           style="stroke:#cfe5ff;stroke-width:4.81968;stroke-dasharray:none;stroke-opacity:0.988235"
           sodipodi:nodetypes="cc" />
        <path
           d="m 186.94895,663.60652 48.70791,-43.11436"
           fill="none"
           stroke="#c5e5ff"
           stroke-width="4.82"
           stroke-opacity="1"
           stroke-linejoin="round"
           id="path90-5"
           sodipodi:nodetypes="cc"
           style="stroke:#cfe5ff;stroke-width:4.81968;stroke-dasharray:none;stroke-opacity:0.988235" />
        <path
           d="m 151.40227,773.84411 24.2316,-86.38563"
           fill="none"
           stroke="#c5e5ff"
           stroke-width="4.82"
           stroke-opacity="1"
           stroke-linejoin="round"
           id="path92-9"
           sodipodi:nodetypes="cc"
           style="stroke:#cfe5ff;stroke-width:4.81968;stroke-dasharray:none;stroke-opacity:0.988235" />
        <path
           d="m 207.82571,743.74429 38.4894,9.97685"
           fill="none"
           stroke="#c5e5ff"
           stroke-width="4.82"
           stroke-opacity="1"
           stroke-linejoin="round"
           id="path94-0"
           sodipodi:nodetypes="cc"
           style="stroke:#cfe5ff;stroke-width:4.81968;stroke-dasharray:none;stroke-opacity:0.988235" />
        <path
           d="m 109.71218,702.70658 22.23515,1.6"
           fill="none"
           stroke="#c5e5ff"
           stroke-width="4.82"
           stroke-opacity="1"
           stroke-linejoin="round"
           id="path96-9"
           style="stroke:#cfe5ff;stroke-width:4.81968;stroke-dasharray:none;stroke-opacity:0.988235"
           sodipodi:nodetypes="cc" />
        <path
           d="m 169.02574,663.80829 -16.3104,-26.46804"
           fill="none"
           stroke="#c5e5ff"
           stroke-width="4.82"
           stroke-opacity="1"
           stroke-linejoin="round"
           id="path98-7"
           style="stroke:#cfe5ff;stroke-width:4.81968;stroke-dasharray:none;stroke-opacity:0.988235"
           sodipodi:nodetypes="cc" />
        <path
           d="m 131.59355,710.45752 17.43616,63.91754"
           fill="none"
           stroke="#c5e5ff"
           stroke-width="4.82"
           stroke-opacity="1"
           stroke-linejoin="round"
           id="path100-4"
           style="stroke:#cfe5ff;stroke-width:4.81968;stroke-dasharray:none;stroke-opacity:0.988235"
           sodipodi:nodetypes="cc" />
        <path
           d="m 150.84808,783.70927 0.66707,26.43822"
           fill="none"
           stroke="#c5e5ff"
           stroke-width="4.82"
           stroke-opacity="1"
           stroke-linejoin="round"
           id="path102-5"
           sodipodi:nodetypes="cc"
           style="stroke:#cfe5ff;stroke-width:4.81968;stroke-dasharray:none;stroke-opacity:0.988235" />
        <path
           d="M 207.25583,746.40212 197.52,807.66"
           fill="none"
           stroke="#c5e5ff"
           stroke-width="4.82"
           stroke-opacity="1"
           stroke-linejoin="round"
           id="path104-7"
           sodipodi:nodetypes="cc"
           style="stroke:#cfe5ff;stroke-width:4.81968;stroke-dasharray:none;stroke-opacity:0.988235" />
        <path
           d="M 189.75433,682.95406 237.51336,708.11"
           fill="none"
           stroke="#c5e5ff"
           stroke-width="4.82"
           stroke-opacity="1"
           stroke-linejoin="round"
           id="path106-9"
           sodipodi:nodetypes="cc"
           style="stroke:#cfe5ff;stroke-width:4.81968;stroke-dasharray:none;stroke-opacity:0.988235" />
        <path
           d="M 210.43,761.55"
           fill="none"
           stroke="#005daa"
           stroke-width="14.45"
           stroke-opacity="1"
           stroke-linejoin="round"
           id="path108-4" />
      </g>
      <circle
         style="display:inline;fill:none;stroke:#cfe5ff;stroke-width:3.09857;stroke-dasharray:none;stroke-opacity:0.988235"
         id="path2669-0"
         cx="82.824348"
         cy="44.606972"
         r="6.6767607" />
      <circle
         style="display:inline;fill:#cfe5ff;fill-opacity:0.988235;stroke:#cfe5ff;stroke-width:3.49999;stroke-dasharray:none;stroke-opacity:0.988235"
         id="path3980-1"
         cx="97.611771"
         cy="80.693405"
         r="4.2894335" />
      <circle
         style="display:inline;fill:#cfe5ff;fill-opacity:0.988235;stroke:#cfe5ff;stroke-width:3.26246;stroke-dasharray:none;stroke-opacity:0.988235"
         id="path3980-8-3"
         cx="57.634762"
         cy="59.670288"
         r="3.9983234" />
      <circle
         style="display:inline;fill:#cfe5ff;fill-opacity:0.988235;stroke:#cfe5ff;stroke-width:3.49999;stroke-dasharray:none;stroke-opacity:0.988235"
         id="path3980-7-1"
         cx="68.111755"
         cy="97.689293"
         r="4.2894335" />
      <g
         stroke-linecap="round"
         transform="matrix(0.53152915,0,0,0.5284349,-93.147742,-381.23658)"
         id="Layer_14-6"
         style="display:inline">
        <path
           d="m 333.8132,947.0075 c -37.11902,2.46124 -75.10308,-0.94351 -112.57082,-2.3502 -4.15728,-1.07084 -2.97407,-4.12876 -0.77073,-6.85092 10.27779,-7.62145 16.89058,-13.37786 21.41835,-25.09638 9.63116,-30.10383 12.19672,-64.3262 18.25,-91.76 4.94613,-21.04859 11.22156,-34.79027 27.68,-49.49 5.14,-4.37 18.72,-11.44 24.69,-13.52 7.42,-2.54 21.96,-5.14 33.51,-6.54 12.61,-1.22 39.81,-2.8 40.11,-2.83 2,-0.15 4.02,0.34 4.86,1.4 0.7,0.97 0.44,3.01 -0.37,4.87 -0.44,0.94 -5.3,11.43 -6.21,14.04 -4.87272,14.49444 0.3534,28.47357 3.89,42.82 4.11,16.09 14.06,55.61 15.27,62.07 2.96935,22.82315 -0.99002,38.98295 -17.25837,54.61235"
           fill="none"
           stroke="#005daa"
           stroke-width="12"
           stroke-opacity="1"
           stroke-linejoin="round"
           id="path63-2"
           style="display:inline;stroke:#005daa;stroke-width:7.54746;stroke-dasharray:none;stroke-opacity:0.988235"
           sodipodi:nodetypes="ccccccccccccccc" />
        <path
           d="m 383.20994,930.83687 c -14.34541,8.55915 -25.30199,13.44694 -42.06684,15.23255"
           fill="none"
           stroke="#005daa"
           stroke-width="12"
           stroke-opacity="1"
           stroke-linejoin="round"
           id="path65-6"
           style="display:inline;stroke:#005daa;stroke-width:7.54746;stroke-dasharray:none;stroke-opacity:0.988235"
           sodipodi:nodetypes="cc" />
      </g>
      <path
         d="m 180.41,797.33 c 4.46851,11.6939 6.53738,24.58159 3.2,36.87 -0.54,1.71 -0.82081,4.66191 -2.19081,6.02191 -0.74,0.73 -6.37919,3.87809 -6.08919,3.75809 10.73984,-4.91914 15.64614,-5.46096 25.1464,-1.27461"
         fill="none"
         stroke="#c5e5ff"
         stroke-width="2.57"
         stroke-opacity="1"
         stroke-linejoin="miter"
         id="path72-6"
         style="display:inline;stroke:#cfe5ff;stroke-width:6.68075;stroke-linecap:round;stroke-dasharray:none;stroke-opacity:0.988235"
         sodipodi:nodetypes="ccccc"
         transform="matrix(0.52347373,0,0,0.52431376,-10.453866,-308.95786)" />
      <path
         d="m 230.03844,796.01854 c 3.92866,4.21923 8.88464,14.4416 10.67554,22.11705 0.40844,1.83514 1.70401,4.66264 1.17606,6.61373 -0.28758,1.04969 -3.74731,6.85581 -3.54737,6.59528 7.1543,-10.08028 11.31823,-13.13652 22.13043,-14.29992"
         fill="none"
         stroke="#c5e5ff"
         stroke-width="2.57"
         stroke-opacity="1"
         stroke-linejoin="miter"
         id="path72-0-3"
         style="display:inline;stroke:#cfe5ff;stroke-width:6.68075;stroke-linecap:round;stroke-dasharray:none;stroke-opacity:0.988235"
         sodipodi:nodetypes="ccccc"
         transform="matrix(0.52347373,0,0,0.52431376,-10.453866,-308.95786)" />
    </g>
  </g>
  <g
     inkscape:label="Layer 3"
     inkscape:groupmode="layer"
     id="layer1-4"
     style="display:none"
     transform="translate(214.33808,-12.407844)"
     sodipodi:insensitive="true"
     inkscape:export-filename="WAG3.png"
     inkscape:export-xdpi="300"
     inkscape:export-ydpi="300">
    <path
       d="m -29.672314,109.68366 c 2.335162,6.0852 3.41632,12.79166 1.672263,19.18623 -0.282189,0.88984 -0.428939,2.42593 -1.144881,3.13364 -0.38671,0.37989 -3.333662,2.01806 -3.182111,1.95563 5.61246,-2.55981 8.176411,-2.84176 13.141096,-0.66328"
       fill="none"
       stroke="#c5e5ff"
       stroke-width="2.57"
       stroke-opacity="1"
       stroke-linejoin="miter"
       id="path72-6-9-0-4"
       style="display:inline;stroke:#005daa;stroke-width:10.284;stroke-linecap:round;stroke-dasharray:none;stroke-opacity:0.988235"
       sodipodi:nodetypes="ccccc" />
    <path
       d="m -3.7373153,109.0012 c 2.05306,2.19558 4.64298024,7.51505 5.5788702,11.50917 0.21344,0.95495 0.89049,2.42632 0.61458,3.44163 -0.15028,0.54622 -1.95827996,3.56759 -1.85377996,3.43201 3.73870996,-5.24554 5.91472996,-6.83593 11.56500006,-7.44132"
       fill="none"
       stroke="#c5e5ff"
       stroke-width="2.57"
       stroke-opacity="1"
       stroke-linejoin="miter"
       id="path72-0-3-5-9-4"
       style="display:inline;stroke:#005daa;stroke-width:10.284;stroke-linecap:round;stroke-dasharray:none;stroke-opacity:0.988235"
       sodipodi:nodetypes="ccccc" />
    <path
       style="display:inline;fill:#51a3e6;fill-opacity:1;stroke:#51a3e6;stroke-width:7.13824;stroke-linecap:round;stroke-dasharray:none;stroke-opacity:1;paint-order:fill markers stroke"
       d="m 798.29936,299.38809 -20.52697,-21.87107 1.51862,-3.37339 c 1.92201,-4.26946 2.0457,-12.5627 0.24932,-16.71609 -3.05969,-7.07424 -11.33221,-13.21074 -17.8092,-13.21074 -2.65065,0 -2.89581,-0.19036 -3.6124,-2.80494 -0.42283,-1.54272 -5.27951,-17.55891 -10.79263,-35.59154 l -10.02385,-32.78659 3.34376,-3.34376 c 3.72218,-3.72219 5.99914,-8.20385 6.67564,-13.13943 l 0.44952,-3.27961 21.95261,-5.4677 c 12.07393,-3.00723 22.52777,-5.51687 23.23074,-5.57698 1.07803,-0.0922 2.59931,5.21902 9.71683,33.924 13.17735,53.14424 19.57497,79.89629 20.83561,87.12535 1.83138,10.50187 1.68039,33.2086 -0.28267,42.50943 -1.58644,7.51647 -3.72365,15.47413 -4.15592,15.47413 -0.13312,0 -9.47917,-9.84199 -20.76901,-21.87107 z"
       id="path3096"
       transform="matrix(0.26458333,0,0,0.26458333,-214.33808,12.40784)" />
    <path
       style="display:inline;fill:#51a3e6;fill-opacity:1;stroke:#51a3e6;stroke-width:7.13824;stroke-linecap:round;stroke-dasharray:none;stroke-opacity:1;paint-order:fill markers stroke"
       d="m 696.5433,189.44658 c -28.28666,-30.96372 -51.16627,-56.38567 -50.84359,-56.49323 0.32268,-0.10756 12.86599,3.97621 27.87403,9.07504 l 27.28733,9.27061 0.54794,4.30868 c 1.45292,11.42496 9.66227,19.41251 21.01237,20.44468 l 5.18892,0.47188 10.37536,34.02884 c 5.70644,18.71586 10.28818,34.29036 10.18163,34.61001 -0.10655,0.31964 -23.33735,-24.75278 -51.62399,-55.71651 z"
       id="path3544"
       transform="matrix(0.26458333,0,0,0.26458333,-214.33808,12.40784)" />
    <path
       style="display:inline;fill:#91c5f2;fill-opacity:0.988235;stroke:#91c5f3;stroke-width:7.13824;stroke-linecap:round;stroke-dasharray:none;stroke-opacity:0.988235;paint-order:fill markers stroke"
       d="m 660.22616,288.70895 c -1.2894,-2.82993 -6.56942,-8.24603 -10.47226,-10.74218 -1.92262,-1.22965 -5.56909,-2.80964 -8.10327,-3.51109 l -4.60761,-1.27535 -0.47076,-8.3109 c -0.44079,-7.78188 -4.89972,-117.65768 -4.89972,-120.73775 0,-0.95421 0.96979,-1.79474 2.9833,-2.58566 l 2.9833,-1.17188 50.68456,55.48941 c 27.8765,30.51918 51.10768,56.02483 51.62482,56.67924 0.76346,0.96609 0.71007,1.73682 -0.28391,4.09875 -0.6733,1.59991 -1.43301,4.5771 -1.68825,6.61598 l -0.46407,3.70704 -36.65122,11.39351 c -20.15817,6.26643 -37.35745,11.57614 -38.22061,11.79937 -1.16328,0.30084 -1.78804,-0.074 -2.4143,-1.44849 z"
       id="path3546"
       transform="matrix(0.26458333,0,0,0.26458333,-214.33808,12.40784)" />
    <path
       style="display:inline;fill:#91c5f2;fill-opacity:0.988235;stroke:#91c5f3;stroke-width:7.13824;stroke-linecap:round;stroke-dasharray:none;stroke-opacity:0.988235;paint-order:fill markers stroke"
       d="m 629.61559,390.26143 c -9.15346,-0.119 -16.64607,-0.46236 -16.65024,-0.76304 -0.004,-0.30067 3.60665,-12.55613 8.02406,-27.23436 l 8.03165,-26.68769 2.02905,0.40581 c 3.10755,0.62151 11.60591,-1.11763 15.87283,-3.24828 2.10276,-1.05 5.41779,-3.23635 7.36674,-4.85855 l 3.54354,-2.94947 42.83147,20.71833 c 23.55731,11.39508 46.70229,22.57487 51.43329,24.84397 l 8.60182,4.12563 -2.24396,0.97347 c -9.61632,4.17176 -28.35136,8.79342 -44.59532,11.00101 l -2.70822,0.36805 -1.68496,-6.48214 c -2.44689,-9.4133 -5.85103,-17.8949 -7.7028,-19.19193 -2.66451,-1.86629 -6.33024,-1.4261 -8.81484,1.0585 -1.20253,1.20253 -2.18641,2.94016 -2.18641,3.8614 0,0.92123 1.34637,5.81339 2.99193,10.87145 1.64557,5.05806 2.99194,9.68611 2.99194,10.28456 0,0.67967 -1.05283,1.2549 -2.80494,1.53251 -6.66315,1.05575 -23.93454,1.91451 -35.34225,1.75726 -6.78795,-0.0936 -19.83093,-0.26748 -28.98438,-0.38649 z"
       id="path3895"
       transform="matrix(0.26458333,0,0,0.26458333,-214.33808,12.40784)" />
    <path
       style="display:inline;fill:#51a3e6;fill-opacity:1;stroke:#51a3e6;stroke-width:7.13824;stroke-linecap:round;stroke-dasharray:none;stroke-opacity:1;paint-order:fill markers stroke"
       d="m 717.64625,342.39954 -55.02128,-26.63047 0.97944,-3.77583 c 0.53869,-2.0767 0.97943,-5.52668 0.97943,-7.66662 v -3.89079 l 3.55293,-1.15126 c 11.20154,-3.62965 71.46133,-22.15647 72.06546,-22.15647 0.39693,0 1.76735,1.19094 3.04538,2.64653 3.89348,4.43443 8.24806,6.5153 14.47003,6.9146 3.91568,0.25129 6.48678,-0.002 9.08374,-0.89521 l 3.62221,-1.24572 2.24395,2.5784 c 1.23417,1.41812 10.99537,11.8903 21.69154,23.27152 10.69617,11.38121 19.54219,20.95256 19.65783,21.26965 0.11563,0.31709 -1.77976,3.57448 -4.21197,7.23865 -6.51816,9.81972 -17.38562,19.82531 -28.16159,25.92816 -3.29113,1.8639 -6.65706,3.57035 -7.47984,3.79212 -0.99943,0.26938 -19.75828,-8.43581 -56.51726,-26.22726 z"
       id="path3897"
       transform="matrix(0.26458333,0,0,0.26458333,-214.33808,12.40784)" />
    <path
       style="display:inline;fill:#51a3e6;fill-opacity:1;stroke:#51a3e6;stroke-width:7.13824;stroke-linecap:round;stroke-dasharray:none;stroke-opacity:1;paint-order:fill markers stroke"
       d="m 540.41849,388.13141 c -19.54109,-0.53465 -38.17251,-1.0737 -41.40317,-1.19788 l -5.87393,-0.22577 5.87393,-4.06979 c 7.86645,-5.45032 18.59727,-16.42462 22.38345,-22.89134 7.58731,-12.95896 14.63372,-33.14148 20.02862,-57.36655 2.17369,-9.76066 4.17738,-17.97187 4.45264,-18.24713 0.27527,-0.27526 12.95933,3.31197 28.18681,7.97163 l 27.68634,8.4721 v 3.82622 c 0,11.08275 6.41504,22.17132 16.03041,27.70902 1.2034,0.69305 0.61516,3.0693 -7.17275,28.97514 l -8.48367,28.22018 -13.08972,-0.10187 c -7.19934,-0.056 -29.07788,-0.5393 -48.61896,-1.07396 z"
       id="path3098"
       transform="matrix(0.26458333,0,0,0.26458333,-214.33808,12.40784)" />
    <path
       style="display:inline;fill:#005daa;fill-opacity:1;stroke:#005daa;stroke-width:7.13824;stroke-linecap:round;stroke-dasharray:none;stroke-opacity:1;paint-order:fill markers stroke"
       d="m 576.0644,281.99938 c -15.15731,-4.67639 -27.71183,-8.65562 -27.89894,-8.84273 -0.18711,-0.18711 1.01181,-8.54224 2.66426,-18.56694 1.65245,-10.02471 4.87059,-29.58422 7.15142,-43.46557 6.11075,-37.19072 11.76444,-63.30212 17.2345,-79.59716 2.88407,-8.5915 15.45156,-32.447499 20.82199,-39.52494 l 1.13515,-1.495968 1.14548,1.495968 c 0.63002,0.822783 3.00285,4.052408 5.27297,7.176944 l 4.12749,5.680976 -2.35467,4.34743 c -6.14861,11.3522 -1.87021,25.8062 9.25524,31.26758 2.17995,1.07011 4.52045,2.10689 5.20112,2.30395 0.97321,0.28175 1.33393,1.68741 1.68856,6.58003 0.43783,6.04049 4.93816,117.58913 4.93117,122.22786 -0.003,2.07216 -0.33395,2.4112 -3.18242,3.26141 -1.74841,0.52187 -4.57372,1.76427 -6.27846,2.76088 -3.50602,2.04967 -9.5596,8.22736 -10.86104,11.0837 -0.47588,1.04445 -1.23196,1.87878 -1.68016,1.85406 -0.44821,-0.0247 -13.21635,-3.87108 -28.37366,-8.54748 z"
       id="path3323"
       transform="matrix(0.26458333,0,0,0.26458333,-214.33808,12.40784)" />
    <path
       style="display:inline;fill:#005daa;fill-opacity:1;stroke:#005daa;stroke-width:7.13824;stroke-linecap:round;stroke-dasharray:none;stroke-opacity:1;paint-order:fill markers stroke"
       d="m 743.30712,139.90927 c -2.09159,-2.96737 -7.13808,-7.34052 -9.3038,-8.06243 -0.5569,-0.18563 -0.62752,-15.13913 -0.23648,-50.073219 l 0.55756,-49.808546 5.33386,-0.527319 c 39.81073,-3.935779 55.49522,-5.399765 55.7218,-5.20106 0.15015,0.131674 -0.8993,2.360512 -2.3321,4.952973 -7.18253,12.995825 -9.81244,24.194626 -9.80186,41.738778 0.008,13.854833 1.00164,21.650057 5.60928,44.020863 1.63981,7.96153 2.87579,14.55836 2.74662,14.65964 -0.12917,0.10127 -9.99605,2.60437 -21.9264,5.56245 -11.93034,2.95807 -22.21456,5.53512 -22.85381,5.72677 -0.74749,0.22411 -2.00178,-0.84255 -3.51467,-2.9889 z"
       id="path3396"
       transform="matrix(0.26458333,0,0,0.26458333,-214.33808,12.40784)" />
    <path
       style="display:inline;fill:#51a3e6;fill-opacity:1;stroke:#51a3e6;stroke-width:7.13824;stroke-linecap:round;stroke-dasharray:none;stroke-opacity:1;paint-order:fill markers stroke"
       d="m 676.42668,132.14884 -27.35963,-9.31823 -0.47554,-4.56852 c -1.14795,-11.02823 -8.43863,-18.701035 -19.7596,-20.795253 -3.34008,-0.617868 -5.18656,-0.553409 -8.51296,0.297175 l -4.24774,1.086179 -2.16095,-3.050084 c -1.18853,-1.677545 -3.9559,-5.503189 -6.14971,-8.50143 l -3.98876,-5.451348 2.16963,-2.314238 c 7.75329,-8.270063 24.33752,-20.114634 37.89993,-27.068396 19.00882,-9.746261 35.53766,-14.467467 60.54887,-17.294848 9.16653,-1.036227 17.33961,-1.884322 18.16239,-1.884656 1.45823,-5.91e-4 1.49144,0.43812 1.31671,17.390376 -0.57353,55.641543 -1.15738,79.224473 -1.96664,79.435453 -8.35598,2.17856 -9.90974,2.96907 -13.94876,7.09684 l -4.16761,4.25919 z"
       id="path2882"
       transform="matrix(0.26458333,0,0,0.26458333,-214.33808,12.40784)" />
    <path
       style="display:inline;fill:none;fill-rule:evenodd;stroke:#cfe6ff;stroke-width:2.525;stroke-linecap:butt;stroke-linejoin:miter;stroke-dasharray:none;stroke-opacity:1"
       d="M -46.317487,93.944337 -10.298938,111.3599"
       id="path2645"
       inkscape:connector-type="polyline"
       inkscape:connector-curvature="0" />
    <path
       style="display:inline;fill:#005daa;fill-opacity:0.988235;stroke:#005daa;stroke-width:0.344218;stroke-linecap:round;stroke-dasharray:none;stroke-opacity:0.988235;paint-order:fill markers stroke"
       d="m -47.744498,97.964624 c -2.656589,-0.522796 -4.518922,-3.163835 -4.050917,-5.744742 0.306139,-1.688251 1.408261,-3.123967 2.954264,-3.848479 0.6565,-0.307657 0.908293,-0.350747 2.049507,-0.350723 1.175673,2.4e-5 1.376286,0.03687 2.081689,0.382325 0.996241,0.487884 1.992087,1.483733 2.479973,2.479972 0.345456,0.705405 0.382299,0.906015 0.382323,2.081688 2.4e-5,1.139341 -0.04331,1.393529 -0.348662,2.04501 -0.406988,0.868328 -1.364319,1.940658 -2.13659,2.393238 -0.521697,0.305737 -2.048322,0.70933 -2.588839,0.684411 -0.143116,-0.0066 -0.513353,-0.06182 -0.822748,-0.1227 z"
       id="path2599-5" />
    <circle
       style="display:inline;fill:none;stroke:#cfe5ff;stroke-width:3.09857;stroke-dasharray:none;stroke-opacity:0.988235"
       id="path2669-0-5-6"
       cx="-46.817429"
       cy="92.99408"
       r="6.6767607" />
    <circle
       style="display:inline;fill:#cfe5ff;fill-opacity:0.988235;stroke:#cfe5ff;stroke-width:3.49999;stroke-dasharray:none;stroke-opacity:0.988235"
       id="path3980-1-3-2"
       cx="-22.661203"
       cy="52.951111"
       r="4.2894335" />
    <circle
       style="display:inline;fill:#cfe5ff;fill-opacity:0.988235;stroke:#cfe5ff;stroke-width:3.26246;stroke-dasharray:none;stroke-opacity:0.988235"
       id="path3980-8-3-8-5"
       cx="-13.406892"
       cy="82.666992"
       r="3.9983234" />
    <circle
       style="display:inline;fill:#cfe5ff;fill-opacity:0.988235;stroke:#cfe5ff;stroke-width:3.49999;stroke-dasharray:none;stroke-opacity:0.988235"
       id="path3980-7-1-0-8"
       cx="-48.827438"
       cy="44.226486"
       r="4.2894335" />
    <path
       d="m -0.22158526,17.593852 c -6.00947004,0.51907 -29.36628674,2.808932 -31.83184774,3.233626 -9.145195,1.577888 -17.896483,6.291997 -23.529639,12.287062 -2.439387,2.700215 -6.130532,9.113499 -7.680014,12.998664 -3.7293,11.817689 -4.974724,24.043173 -7.15274,36.350673 -0.70669,3.953325 -2.38704,11.728898 -3.041383,14.182687 -0.622933,2.30698 -2.538847,7.597316 -3.905114,9.982946 -1.355796,2.29125 -3.690489,4.5458 -5.904783,6.01912 -2.28758,1.531 -5.711273,3.81674 -5.334197,3.56533"
       fill="none"
       stroke="#c5e5ff"
       stroke-width="6.43"
       stroke-opacity="1"
       stroke-linejoin="miter"
       id="path82-5-4-8"
       sodipodi:nodetypes="ccccccccc"
       style="display:inline;stroke:#cfe5ff;stroke-width:2.525;stroke-dasharray:none;stroke-opacity:0.988235" />
    <path
       d="m -3.1674953,111.06488 c -7.6249997,4.52295 -13.4487427,7.10583 -22.3597497,8.04941"
       fill="none"
       stroke="#005daa"
       stroke-width="12"
       stroke-opacity="1"
       stroke-linejoin="round"
       id="path65-6-0-4"
       style="display:inline;stroke:#005daa;stroke-width:4;stroke-dasharray:none;stroke-opacity:0.988235"
       sodipodi:nodetypes="cc" />
    <path
       d="m -0.94329526,16.964468 c -0.40831004,0.828415 -2.42609004,4.340095 -2.98098004,5.504071 -3.67481,7.736675 -1.23885,16.098651 0.43972,24.532641 1.70129,7.58682 8.0300902,31.836332 8.5064502,35.506528 0.28791,2.286008 0.38737,6.559165 0.20416,8.551558 -0.19369,1.981906 -1.04695,5.657345 -1.70653,7.34563 -0.67528,1.677804 -2.4865,4.745064 -3.62767016,6.134494 -1.10977004,1.33176 -3.63814004,3.60203 -5.00441004,4.56153 -2.64878,1.84034 -9.2602507,4.68737 -13.2229437,5.69405 -3.9784,1.00144 -13.24912,2.16542 -18.541439,2.33844 -4.015044,0.12059 -44.471196,-0.93852 -50.569665,-1.09582"
       fill="none"
       stroke="#c5e5ff"
       stroke-width="6.43"
       stroke-opacity="1"
       stroke-linejoin="miter"
       id="path68-5-7-8"
       sodipodi:nodetypes="ccccccccccc"
       style="display:inline;stroke:#cfe5ff;stroke-width:2.525;stroke-dasharray:none;stroke-opacity:0.988235" />
    <path
       d="m -28.847556,119.78493 c -19.729842,1.30061 -39.919478,-0.49858 -59.834675,-1.24192 -2.209716,-0.56587 -2.041281,-2.56552 -0.870141,-4.004 4.883366,-4.18403 8.538226,-6.20804 11.384479,-13.26182 5.119242,-15.907917 6.943387,-33.608483 10.160881,-48.105461 2.629013,-11.122809 5.964587,-18.384393 14.712728,-26.152243 2.732061,-2.309261 9.950227,-6.045296 13.123456,-7.14444 3.943946,-1.342225 11.67238,-2.716156 17.811542,-3.455965 6.702583,-0.644691 21.1601707,-1.479618 21.3196307,-1.495471 1.06306024,-0.07926 2.1367502,0.179668 2.5832302,0.739809 0.37208,0.512582 0.23388,1.590589 -0.19666,2.573478 -0.23387,0.496729 -2.8171102,6.040011 -3.3008002,7.419227 -2.59,7.659368 0.18784,15.046428 2.06765024,22.627582 2.18458996,8.502518 7.47329996,29.386266 8.11644996,32.799955 1.5783,12.06055 -0.52622,20.599959 -9.17333016,28.859089"
       fill="none"
       stroke="#005daa"
       stroke-width="12"
       stroke-opacity="1"
       stroke-linejoin="round"
       id="path63-2-8-2"
       style="display:inline;stroke:#005daa;stroke-width:4;stroke-dasharray:none;stroke-opacity:0.988235"
       sodipodi:nodetypes="ccccccccccccccc" />
    <path
       d="m -3.7417953,108.82038 c 2.05655,2.2122 4.65088024,7.57192 5.5883602,11.59627 0.21381,0.96219 0.89201,2.44468 0.61564,3.46767 -0.15054,0.55036 -1.96161996,3.59459 -1.85694996,3.45799 3.74507996,-5.28523 5.92478996,-6.88766 11.58470006,-7.49764"
       fill="none"
       stroke="#c5e5ff"
       stroke-width="2.57"
       stroke-opacity="1"
       stroke-linejoin="miter"
       id="path72-0-3-2-8"
       style="display:inline;stroke:#cfe5ff;stroke-width:3.5;stroke-linecap:round;stroke-dasharray:none;stroke-opacity:0.988235"
       sodipodi:nodetypes="ccccc" />
    <path
       d="m -29.72098,109.50799 c 2.339147,6.13127 3.422146,12.88847 1.675116,19.33145 -0.282676,0.89658 -0.429673,2.4443 -1.146832,3.15737 -0.38737,0.38275 -3.339338,2.03333 -3.187531,1.97042 5.622024,-2.57918 8.190343,-2.86326 13.16348,-0.6683"
       fill="none"
       stroke="#c5e5ff"
       stroke-width="2.57"
       stroke-opacity="1"
       stroke-linejoin="miter"
       id="path72-6-7-2"
       style="display:inline;stroke:#cfe5ff;stroke-width:3.5;stroke-linecap:round;stroke-dasharray:none;stroke-opacity:0.988235"
       sodipodi:nodetypes="ccccc" />
    <path
       style="fill:none;fill-rule:evenodd;stroke:#cde4fe;stroke-width:2.525;stroke-linecap:butt;stroke-linejoin:miter;stroke-dasharray:none;stroke-opacity:1"
       d="m -44.767001,45.609079 23.385435,7.962818"
       id="path2002"
       inkscape:connector-type="polyline"
       inkscape:connector-curvature="0"
       inkscape:connection-start="#path3980-7-1-0-8" />
    <path
       style="fill:none;fill-rule:evenodd;stroke:#cde4fe;stroke-width:2.525;stroke-linecap:butt;stroke-linejoin:miter;stroke-dasharray:none;stroke-opacity:1"
       d="m -13.465403,81.872185 -9.10359,-29.883523"
       id="path2073"
       inkscape:connector-type="polyline"
       inkscape:connector-curvature="0" />
    <path
       style="fill:none;fill-rule:evenodd;stroke:#cde4fe;stroke-width:2.525;stroke-linecap:butt;stroke-linejoin:miter;stroke-dasharray:none;stroke-opacity:1"
       d="M -17.225271,83.852729 -41.959522,91.53356"
       id="path2075"
       inkscape:connector-type="polyline"
       inkscape:connector-curvature="0"
       inkscape:connection-start="#path3980-8-3-8-5"
       inkscape:connection-end="#path2599-5" />
    <path
       style="fill:none;fill-rule:evenodd;stroke:#cde4fe;stroke-width:2.525;stroke-linecap:butt;stroke-linejoin:miter;stroke-dasharray:none;stroke-opacity:1"
       d="m -48.654551,48.512368 1.593761,39.509347"
       id="path2146"
       inkscape:connector-type="polyline"
       inkscape:connector-curvature="0"
       inkscape:connection-start="#path3980-7-1-0-8"
       inkscape:connection-end="#path2599-5" />
    <path
       style="fill:none;fill-rule:evenodd;stroke:#cde4fe;stroke-width:2.525;stroke-linecap:butt;stroke-linejoin:miter;stroke-dasharray:none;stroke-opacity:1"
       d="m -21.777375,52.78028 0.395809,-33.049988"
       id="path2217"
       inkscape:connector-type="polyline"
       inkscape:connector-curvature="0" />
    <path
       style="fill:none;fill-rule:evenodd;stroke:#cfe6ff;stroke-width:2.525;stroke-linecap:butt;stroke-linejoin:miter;stroke-dasharray:none;stroke-opacity:0.988235"
       d="M -10.671739,85.583318 2.3669253,99.485651"
       id="path2219"
       inkscape:connector-type="polyline"
       inkscape:connector-curvature="0"
       inkscape:connection-start="#path3980-8-3-8-5" />
    <path
       style="fill:none;fill-rule:evenodd;stroke:#cde4fe;stroke-width:2.525;stroke-linecap:butt;stroke-linejoin:miter;stroke-dasharray:none;stroke-opacity:1"
       d="M -48.300834,97.821037 -53.837842,116.1096"
       id="path2221"
       inkscape:connector-type="polyline"
       inkscape:connector-curvature="0"
       inkscape:connection-start="#path2599-5" />
    <path
       style="fill:none;fill-rule:evenodd;stroke:#cfe6ff;stroke-width:2.525;stroke-linecap:butt;stroke-linejoin:miter;stroke-dasharray:none;stroke-opacity:1"
       d="m -51.640312,91.587663 -19.41519,-5.955302"
       id="path2292"
       inkscape:connector-type="polyline"
       inkscape:connector-curvature="0"
       inkscape:connection-start="#path2599-5" />
    <path
       style="fill:none;fill-rule:evenodd;stroke:#cde4fe;stroke-width:2.525;stroke-linecap:butt;stroke-linejoin:miter;stroke-dasharray:none;stroke-opacity:1"
       d="m -51.370027,40.771938 -5.436377,-7.386262"
       id="path2363"
       inkscape:connector-type="polyline"
       inkscape:connector-curvature="0"
       inkscape:connection-start="#path3980-7-1-0-8" />
    <path
       style="fill:#000000;fill-opacity:1;fill-rule:evenodd;stroke:#cde4fe;stroke-width:2.525;stroke-linecap:butt;stroke-linejoin:miter;stroke-dasharray:none;stroke-opacity:1"
       d="M -21.777375,52.844824 -2.5806771,48.095125"
       id="path2365"
       inkscape:connector-type="polyline"
       inkscape:connector-curvature="0" />
    <path
       style="fill:none;fill-rule:evenodd;stroke:#cfe6ff;stroke-width:2.525;stroke-linecap:butt;stroke-linejoin:miter;stroke-dasharray:none;stroke-opacity:0.988235"
       d="m -49.681857,43.082978 37.799687,41.36196"
       id="path2643"
       inkscape:connector-type="polyline"
       inkscape:connector-curvature="0" />
  </g>
</svg>
